<?xml version="1.0" encoding="utf-8"?>
<!-- Generator: Adobe Illustrator 16.0.0, SVG Export Plug-In . SVG Version: 6.00 Build 0)  -->
<!DOCTYPE svg PUBLIC "-//W3C//DTD SVG 1.1//EN" "http://www.w3.org/Graphics/SVG/1.1/DTD/svg11.dtd">
<svg version="1.1" id="Layer_1" xmlns="http://www.w3.org/2000/svg" xmlns:xlink="http://www.w3.org/1999/xlink" x="0px" y="0px"
	 width="512px" height="512px" viewBox="0 0 512 512" enable-background="new 0 0 512 512" xml:space="preserve">
<text transform="matrix(1 0 0 1 168.7834 543.8083)" fill="#FFFF00" font-family="'Verdana-Bold'" font-size="20">simpleicon.com</text>
<text transform="matrix(1 0 0 1 9.1926 567.8083)" fill="#FFFF00" font-family="'Verdana'" font-size="20">Collection Of Flat Icon, Symbols And Glyph Icons</text>
<path d="M149.61,50.203c-1.253,1.201-2.533,2.353-3.762,3.582c-81.109,81.109-81.109,212.613,0,293.72
	c81.106,81.109,212.611,81.109,293.721,0c1.229-1.232,2.381-2.51,3.578-3.764L149.61,50.203z"/>
<path fill="#020202" d="M385.93,92.192c30.74,26.61,49.351,66.68,49.61,107.354c-0.081,5.44-5.257,9.919-10.619,9.622
	c-5.663,0.463-10.921-4.688-10.62-10.352c-0.649-34.366-16.255-68.198-42.338-90.654c-21.463-18.871-49.684-29.718-78.225-30.44
	c-2.633,0.033-5.383-0.54-7.391-2.361c-5.354-4.231-4.779-13.67,0.944-17.325c1.976-1.391,4.458-1.712,6.815-1.598
	C327.638,57.164,360.706,70.092,385.93,92.192z"/>
<path fill="#020202" d="M357.097,119.602c24.358,19.581,39.075,50.495,38.922,81.737c-0.346,5.205-5.185,9.436-10.381,9.233
	c-5.473,0.552-10.774-4.073-10.831-9.598c-0.142-19.764-7.366-39.45-20.299-54.426c-15.544-18.352-39.286-29.235-63.293-29.365
	c-5.724,0.162-10.571-5.354-9.946-10.989c-0.15-5.245,4.288-10.129,9.577-10.239C314.767,95.952,338.55,104.508,357.097,119.602z"/>
<path d="M212.791,461.5c0.017,0,0.049-2.301,0.045-2.904c0-39.762-32.229-72.549-71.99-72.549s-71.992,33.063-71.992,72.82
	c0,0.607,0.03,2.633,0.045,2.633H212.791z"/>
</svg>
